<svg width="125" height="126" viewBox="0 0 125 126" fill="none" xmlns="http://www.w3.org/2000/svg">
<g clip-path="url(#clip0_121_2664)">
<rect width="125" height="126" rx="62.5" fill="#00AF11"/>
<path d="M87.4894 47.2276C86.5201 48.1719 85.5793 49.0885 85.5508 50.005C85.4653 50.8938 86.4346 51.8103 87.3469 52.6713C88.7153 54.06 90.0553 55.3098 89.9982 56.6707C89.9412 58.0317 88.4873 59.4481 87.0333 60.8368L75.2591 72.3352L71.2108 68.3913L83.3271 56.6152L80.5903 53.9489L76.542 57.865L65.8511 47.4498L76.7986 36.8124C77.9104 35.7292 79.7635 35.7292 80.8183 36.8124L87.4894 43.3115C88.6013 44.3391 88.6013 46.1444 87.4894 47.2276ZM37 75.5848L64.2546 49.0051L74.9455 59.4204L47.6909 86H37V75.5848Z" fill="white"/>
<g filter="url(#filter0_f_121_2664)">
<rect x="-7.30078" y="-50" width="8" height="67.8758" transform="rotate(32.7288 -7.30078 -50)" fill="#FAFAFA"/>
</g>
<g filter="url(#filter1_f_121_2664)">
<circle cx="9.5" cy="45" r="27" fill="url(#paint0_radial_121_2664)" fill-opacity="0.8"/>
</g>
</g>
<defs>
<filter id="filter0_f_121_2664" x="-55.998" y="-62" width="67.4277" height="85.425" filterUnits="userSpaceOnUse" color-interpolation-filters="sRGB">
<feFlood flood-opacity="0" result="BackgroundImageFix"/>
<feBlend mode="normal" in="SourceGraphic" in2="BackgroundImageFix" result="shape"/>
<feGaussianBlur stdDeviation="6" result="effect1_foregroundBlur_121_2664"/>
</filter>
<filter id="filter1_f_121_2664" x="-49.5" y="-14" width="118" height="118" filterUnits="userSpaceOnUse" color-interpolation-filters="sRGB">
<feFlood flood-opacity="0" result="BackgroundImageFix"/>
<feBlend mode="normal" in="SourceGraphic" in2="BackgroundImageFix" result="shape"/>
<feGaussianBlur stdDeviation="16" result="effect1_foregroundBlur_121_2664"/>
</filter>
<radialGradient id="paint0_radial_121_2664" cx="0" cy="0" r="1" gradientUnits="userSpaceOnUse" gradientTransform="translate(9.5 45) rotate(90) scale(27)">
<stop stop-color="white"/>
<stop offset="1" stop-color="white" stop-opacity="0"/>
</radialGradient>
<clipPath id="clip0_121_2664">
<rect width="125" height="126" rx="62.5" fill="white"/>
</clipPath>
</defs>
</svg>
