<svg width="125" height="126" viewBox="0 0 125 126" fill="none" xmlns="http://www.w3.org/2000/svg">
<g clip-path="url(#clip0_121_2657)">
<rect width="125" height="126" rx="62.5" fill="#FFA500"/>
<g clip-path="url(#clip1_121_2657)">
<path fill-rule="evenodd" clip-rule="evenodd" d="M41 50.5C41 47.1848 42.4487 44.0054 45.0273 41.6612C47.6059 39.317 51.1033 38 54.75 38C56.0755 38 57.3295 38.425 57.8135 39.6675C58.1935 40.6419 58.8961 41.4853 59.8249 42.0818C60.7536 42.6783 61.8629 42.9985 63 42.9985C64.1371 42.9985 65.2464 42.6783 66.1751 42.0818C67.1039 41.4853 67.8065 40.6419 68.1865 39.6675C68.6732 38.425 69.9272 38 71.25 38C74.8967 38 78.3941 39.317 80.9727 41.6612C83.5513 44.0054 85 47.1848 85 50.5V51.75C85 52.7446 84.5654 53.6984 83.7918 54.4017C83.0182 55.1049 81.969 55.5 80.875 55.5H74C74 57.425 73.791 59.385 75.2045 60.9925L80.7815 67.33C83.5123 70.433 85 74.2886 85 78.2625V80.5C85 82.4891 84.1308 84.3968 82.5836 85.8033C81.0365 87.2098 78.938 88 76.75 88H49.25C47.062 88 44.9635 87.2098 43.4164 85.8033C41.8692 84.3968 41 82.4891 41 80.5V78.2625C41 74.2886 42.4877 70.433 45.2185 67.33L50.7955 60.9925C52.209 59.385 52 57.4275 52 55.5H45.125C44.031 55.5 42.9818 55.1049 42.2082 54.4017C41.4346 53.6984 41 52.7446 41 51.75V50.5Z" fill="white"/>
</g>
<g filter="url(#filter0_f_121_2657)">
<rect x="-7.30078" y="-50" width="8" height="67.8758" transform="rotate(32.7288 -7.30078 -50)" fill="#FAFAFA"/>
</g>
<g filter="url(#filter1_f_121_2657)">
<circle cx="9.5" cy="45" r="27" fill="url(#paint0_radial_121_2657)" fill-opacity="0.8"/>
</g>
</g>
<defs>
<filter id="filter0_f_121_2657" x="-55.998" y="-62" width="67.4277" height="85.425" filterUnits="userSpaceOnUse" color-interpolation-filters="sRGB">
<feFlood flood-opacity="0" result="BackgroundImageFix"/>
<feBlend mode="normal" in="SourceGraphic" in2="BackgroundImageFix" result="shape"/>
<feGaussianBlur stdDeviation="6" result="effect1_foregroundBlur_121_2657"/>
</filter>
<filter id="filter1_f_121_2657" x="-49.5" y="-14" width="118" height="118" filterUnits="userSpaceOnUse" color-interpolation-filters="sRGB">
<feFlood flood-opacity="0" result="BackgroundImageFix"/>
<feBlend mode="normal" in="SourceGraphic" in2="BackgroundImageFix" result="shape"/>
<feGaussianBlur stdDeviation="16" result="effect1_foregroundBlur_121_2657"/>
</filter>
<radialGradient id="paint0_radial_121_2657" cx="0" cy="0" r="1" gradientUnits="userSpaceOnUse" gradientTransform="translate(9.5 45) rotate(90) scale(27)">
<stop stop-color="white"/>
<stop offset="1" stop-color="white" stop-opacity="0"/>
</radialGradient>
<clipPath id="clip0_121_2657">
<rect width="125" height="126" rx="62.5" fill="white"/>
</clipPath>
<clipPath id="clip1_121_2657">
<rect width="53" height="61" fill="white" transform="translate(36 32)"/>
</clipPath>
</defs>
</svg>
