<svg width="9" height="8" viewBox="0 0 9 8" fill="none" xmlns="http://www.w3.org/2000/svg">
<path fill-rule="evenodd" clip-rule="evenodd" d="M4.33022 0.666626C3.77618 0.666626 3.05039 0.858683 2.45672 1.34072C1.85059 1.83289 1.40039 2.61351 1.40039 3.7407C1.40039 4.87752 1.9386 5.812 2.54656 6.45374C2.85138 6.77549 3.18018 7.0309 3.48205 7.20793C3.7706 7.37714 4.07728 7.49996 4.33022 7.49996C4.58316 7.49996 4.88983 7.37714 5.17838 7.20793C5.48026 7.0309 5.80905 6.77549 6.11387 6.45374C6.72183 5.812 7.26004 4.87752 7.26004 3.7407C7.26004 2.61351 6.80984 1.83289 6.20371 1.34072C5.61004 0.858683 4.88426 0.666626 4.33022 0.666626ZM3.18994 3.59645C3.18994 2.96665 3.70049 2.4561 4.33029 2.4561C4.96009 2.4561 5.47064 2.96665 5.47064 3.59645C5.47064 4.22624 4.96009 4.7368 4.33029 4.7368C3.70049 4.7368 3.18994 4.22624 3.18994 3.59645Z" fill="white"/>
</svg>
