<svg width="45" height="44" viewBox="0 0 45 44" fill="none" xmlns="http://www.w3.org/2000/svg">
<mask id="mask0_95_3675" style="mask-type:alpha" maskUnits="userSpaceOnUse" x="0" y="0" width="45" height="44">
<rect width="45" height="44" fill="black"/>
</mask>
<g mask="url(#mask0_95_3675)">
<path d="M20.6562 46.6238V42.6399C16.75 42.1751 13.3984 40.457 10.6016 37.4857C7.80469 34.5144 6.1875 30.9537 5.75 26.8038H2V22.8199H5.75C6.1875 18.67 7.80469 15.1094 10.6016 12.1381C13.3984 9.16676 16.75 7.4487 20.6562 6.98391V3H24.4062V6.98391C28.3125 7.4487 31.6641 9.16676 34.4609 12.1381C37.2578 15.1094 38.875 18.67 39.3125 22.8199H43.0625V26.8038H39.3125C38.875 30.9537 37.2578 34.5144 34.4609 37.4857C31.6641 40.457 28.3125 42.1751 24.4062 42.6399V46.6238H20.6562ZM22.5312 38.7556C26.1562 38.7556 29.25 37.3944 31.8125 34.6721C34.375 31.9497 35.6562 28.663 35.6562 24.8119C35.6562 20.9608 34.375 17.6741 31.8125 14.9517C29.25 12.2294 26.1562 10.8682 22.5312 10.8682C18.9062 10.8682 15.8125 12.2294 13.25 14.9517C10.6875 17.6741 9.40625 20.9608 9.40625 24.8119C9.40625 28.663 10.6875 31.9497 13.25 34.6721C15.8125 37.3944 18.9062 38.7556 22.5312 38.7556ZM22.5312 32.7797C20.4688 32.7797 18.7031 31.9995 17.2344 30.4392C15.7656 28.8788 15.0313 27.003 15.0313 24.8119C15.0313 22.6207 15.7656 20.745 17.2344 19.1846C18.7031 17.6243 20.4688 16.8441 22.5312 16.8441C24.5938 16.8441 26.3594 17.6243 27.8281 19.1846C29.2969 20.745 30.0312 22.6207 30.0312 24.8119C30.0312 27.003 29.2969 28.8788 27.8281 30.4392C26.3594 31.9995 24.5938 32.7797 22.5312 32.7797Z" fill="white"/>
</g>
</svg>
