<svg width="39" height="41" viewBox="0 0 39 41" fill="none" xmlns="http://www.w3.org/2000/svg">
<path fill-rule="evenodd" clip-rule="evenodd" d="M2.66614 15.675C3.39579 7.38021 10.7152 1 19.5013 1C28.2874 1 35.6068 7.38021 36.3365 15.675L37.0676 23.9866C37.1317 24.7155 37.376 25.4194 37.7258 26.4174C38.7932 29.4631 36.627 32.6664 33.2602 33.021C31.2901 33.2285 29.3161 33.3912 27.3398 33.5093C26.8231 37.1736 23.5106 40 19.5013 40C15.4921 40 12.1797 37.1738 11.6629 33.5096C9.68606 33.3916 7.7115 33.2289 5.74092 33.0215C2.37147 32.6668 0.203891 29.4591 1.27624 26.4115C1.6269 25.4149 1.87131 24.7107 1.93542 23.9819L2.66614 15.675ZM15.9214 33.6946C16.4387 35.0954 17.8462 36.1 19.5013 36.1C21.1565 36.1 22.564 35.0953 23.0813 33.6945C22.8796 33.7 22.6779 33.705 22.4762 33.7096C20.2915 33.7591 18.1058 33.7541 15.9214 33.6946Z" stroke="black" stroke-width="2" stroke-linecap="round" stroke-linejoin="round"/>
</svg>
