<svg width="39" height="41" viewBox="0 0 39 41" fill="none" xmlns="http://www.w3.org/2000/svg">
<path stroke-linecap="round" stroke-linejoin="round" fill-rule="evenodd" clip-rule="evenodd"  d="M19.5 26.6895L19.5 25.6895H19.5V26.6895ZM38 33.3682H39V33.3681L38 33.3682ZM19.5 40V41H19.5L19.5 40ZM1 33.3213L0 33.3212V33.3213H1ZM19.5 1L19.5 0H19.5V1ZM31.7422 11.3174H32.7422V11.3174L31.7422 11.3174ZM19.5 21.6377V22.6377H19.5L19.5 21.6377ZM7.25781 11.3174L6.25781 11.3174V11.3174H7.25781ZM19.5 26.6895L19.5 27.6895C24.4972 27.6895 29.001 28.0349 32.2261 28.998C33.8378 29.4793 35.0487 30.0919 35.843 30.8229C36.6077 31.5266 37 32.3478 37 33.3682L38 33.3682L39 33.3681C38.9999 31.7366 38.3338 30.397 37.1973 29.3512C36.0905 28.3327 34.5575 27.607 32.7984 27.0817C29.2817 26.0314 24.5356 25.6895 19.5 25.6895L19.5 26.6895ZM38 33.3682H37C37 34.3867 36.6064 35.2041 35.8388 35.9038C35.0408 36.6312 33.825 37.2387 32.209 37.7146C28.9758 38.6667 24.4709 39 19.5 39L19.5 40L19.5 41C24.5064 41 29.2516 40.6704 32.774 39.6331C34.5358 39.1143 36.0743 38.3954 37.1861 37.3819C38.3283 36.3408 39 35.0027 39 33.3682H38ZM19.5 40V39C14.5039 39 10 38.6546 6.77462 37.6915C5.16273 37.2102 3.95166 36.5976 3.15716 35.8666C2.3923 35.1629 2 34.3417 2 33.3213H1H0C0 34.9529 0.666363 36.2926 1.80297 37.3384C2.90992 38.3569 4.4431 39.0825 6.20237 39.6079C9.71931 40.6581 14.4654 41 19.5 41V40ZM1 33.3213L2 33.3213C2.00005 32.3029 2.39366 31.4855 3.16134 30.7857C3.9593 30.0583 5.17511 29.4508 6.7911 28.9749C10.0243 28.0228 14.5291 27.6895 19.5 27.6895V26.6895V25.6895C14.4936 25.6895 9.7485 26.0191 6.22611 27.0564C4.46429 27.5752 2.92586 28.2941 1.81401 29.3076C0.67187 30.3487 7.89762e-05 31.6868 0 33.3212L1 33.3213ZM19.5 1L19.5 2C25.9111 2.00012 30.742 6.29604 30.7422 11.3174L31.7422 11.3174L32.7422 11.3174C32.742 4.88461 26.6816 0.000131667 19.5 0L19.5 1ZM31.7422 11.3174H30.7422C30.7422 16.3392 25.9109 20.6376 19.5 20.6377L19.5 21.6377L19.5 22.6377C26.6821 22.6376 32.7422 17.75 32.7422 11.3174H31.7422ZM19.5 21.6377V20.6377C13.0912 20.6377 8.25781 16.3392 8.25781 11.3174H7.25781H6.25781C6.25781 17.7501 12.3202 22.6377 19.5 22.6377V21.6377ZM7.25781 11.3174L8.25781 11.3174C8.25797 6.29605 13.0909 2 19.5 2V1V0C12.3207 0 6.25801 4.88444 6.25781 11.3174L7.25781 11.3174Z" stroke="black" stroke-width="2" fill="none"/>
</svg>
