<svg width="125" height="126" viewBox="0 0 125 126" fill="none" xmlns="http://www.w3.org/2000/svg">
<g clip-path="url(#clip0_121_2669)">
<rect width="125" height="126" rx="62.5" fill="#7E30E1"/>
<path d="M79.3333 38H46.6667C44.1 38 42 40.5 42 43.5556V82.4444C42 85.5 44.1 88 46.6667 88H79.3333C81.9 88 84 85.5 84 82.4444V43.5556C84 40.5 81.9 38 79.3333 38ZM51.3333 49.1111H56V54.6667H51.3333V49.1111ZM51.3333 60.2222H56V65.7778H51.3333V60.2222ZM51.3333 71.3333H56V76.8889H51.3333V71.3333ZM74.6667 76.8889H60.6667V71.3333H74.6667V76.8889ZM74.6667 65.7778H60.6667V60.2222H74.6667V65.7778ZM74.6667 54.6667H60.6667V49.1111H74.6667V54.6667Z" fill="white"/>
<g filter="url(#filter0_f_121_2669)">
<rect x="-7.30078" y="-50" width="8" height="67.8758" transform="rotate(32.7288 -7.30078 -50)" fill="#FAFAFA"/>
</g>
<g filter="url(#filter1_f_121_2669)">
<circle cx="9.5" cy="45" r="27" fill="url(#paint0_radial_121_2669)" fill-opacity="0.8"/>
</g>
</g>
<defs>
<filter id="filter0_f_121_2669" x="-55.998" y="-62" width="67.4277" height="85.425" filterUnits="userSpaceOnUse" color-interpolation-filters="sRGB">
<feFlood flood-opacity="0" result="BackgroundImageFix"/>
<feBlend mode="normal" in="SourceGraphic" in2="BackgroundImageFix" result="shape"/>
<feGaussianBlur stdDeviation="6" result="effect1_foregroundBlur_121_2669"/>
</filter>
<filter id="filter1_f_121_2669" x="-49.5" y="-14" width="118" height="118" filterUnits="userSpaceOnUse" color-interpolation-filters="sRGB">
<feFlood flood-opacity="0" result="BackgroundImageFix"/>
<feBlend mode="normal" in="SourceGraphic" in2="BackgroundImageFix" result="shape"/>
<feGaussianBlur stdDeviation="16" result="effect1_foregroundBlur_121_2669"/>
</filter>
<radialGradient id="paint0_radial_121_2669" cx="0" cy="0" r="1" gradientUnits="userSpaceOnUse" gradientTransform="translate(9.5 45) rotate(90) scale(27)">
<stop stop-color="white"/>
<stop offset="1" stop-color="white" stop-opacity="0"/>
</radialGradient>
<clipPath id="clip0_121_2669">
<rect width="125" height="126" rx="62.5" fill="white"/>
</clipPath>
</defs>
</svg>
