<svg width="125" height="126" viewBox="0 0 125 126" fill="none" xmlns="http://www.w3.org/2000/svg">
<g clip-path="url(#clip0_121_2652)">
<rect width="125" height="126" rx="62.5" fill="#0590FF"/>
<path d="M80.7188 39.625V77.75C80.7188 78.2556 80.5443 78.7404 80.2336 79.0979C79.923 79.4554 79.5018 79.6562 79.0625 79.6562H50.9062C50.0277 79.6562 49.1852 80.0579 48.564 80.7729C47.9427 81.4879 47.5938 82.4576 47.5938 83.4688H75.75C76.1893 83.4688 76.6105 83.6696 76.9211 84.0271C77.2318 84.3846 77.4062 84.8694 77.4062 85.375C77.4062 85.8806 77.2318 86.3654 76.9211 86.7229C76.6105 87.0804 76.1893 87.2812 75.75 87.2812H45.9375C45.4982 87.2812 45.077 87.0804 44.7664 86.7229C44.4557 86.3654 44.2812 85.8806 44.2812 85.375V45.3438C44.2812 43.3215 44.9792 41.382 46.2217 39.9521C47.4641 38.5221 49.1492 37.7188 50.9062 37.7188H79.0625C79.5018 37.7188 79.923 37.9196 80.2336 38.2771C80.5443 38.6346 80.7188 39.1194 80.7188 39.625Z" fill="white"/>
<g filter="url(#filter0_f_121_2652)">
<rect x="-7.30078" y="-50" width="8" height="67.8758" transform="rotate(32.7288 -7.30078 -50)" fill="#FAFAFA"/>
</g>
<g filter="url(#filter1_f_121_2652)">
<circle cx="9.5" cy="45" r="27" fill="url(#paint0_radial_121_2652)" fill-opacity="0.8"/>
</g>
</g>
<defs>
<filter id="filter0_f_121_2652" x="-55.998" y="-62" width="67.4277" height="85.425" filterUnits="userSpaceOnUse" color-interpolation-filters="sRGB">
<feFlood flood-opacity="0" result="BackgroundImageFix"/>
<feBlend mode="normal" in="SourceGraphic" in2="BackgroundImageFix" result="shape"/>
<feGaussianBlur stdDeviation="6" result="effect1_foregroundBlur_121_2652"/>
</filter>
<filter id="filter1_f_121_2652" x="-49.5" y="-14" width="118" height="118" filterUnits="userSpaceOnUse" color-interpolation-filters="sRGB">
<feFlood flood-opacity="0" result="BackgroundImageFix"/>
<feBlend mode="normal" in="SourceGraphic" in2="BackgroundImageFix" result="shape"/>
<feGaussianBlur stdDeviation="16" result="effect1_foregroundBlur_121_2652"/>
</filter>
<radialGradient id="paint0_radial_121_2652" cx="0" cy="0" r="1" gradientUnits="userSpaceOnUse" gradientTransform="translate(9.5 45) rotate(90) scale(27)">
<stop stop-color="white"/>
<stop offset="1" stop-color="white" stop-opacity="0"/>
</radialGradient>
<clipPath id="clip0_121_2652">
<rect width="125" height="126" rx="62.5" fill="white"/>
</clipPath>
</defs>
</svg>
