<svg width="308" height="229" viewBox="0 0 308 229" fill="none" xmlns="http://www.w3.org/2000/svg">
<g opacity="0.8">
<path d="M163.637 206.284C220.143 206.284 265.951 160.106 265.951 103.142C265.951 46.1782 220.143 0 163.637 0C107.131 0 61.3242 46.1782 61.3242 103.142C61.3242 160.106 107.131 206.284 163.637 206.284Z" fill="#CCE8FF"/>
<path d="M307.999 91.0642V79.9258C307.999 77.8018 307.162 75.7647 305.673 74.2628C304.183 72.7609 302.162 71.9172 300.055 71.9172H265.914C264.87 71.9172 263.837 71.71 262.873 71.3076C261.91 70.9051 261.034 70.3152 260.296 69.5715C259.558 68.8279 258.973 67.945 258.574 66.9734C258.175 66.0017 257.969 64.9603 257.969 63.9086V52.7701C257.969 50.6461 258.806 48.6091 260.296 47.1072C261.786 45.6053 263.807 44.7616 265.914 44.7616H279.001C281.108 44.7616 283.129 43.9178 284.619 42.4159C286.108 40.914 286.945 38.877 286.945 36.753V25.6145C286.945 23.4905 286.108 21.4535 284.619 19.9516C283.129 18.4497 281.108 17.606 279.001 17.606H44.7664C42.6594 17.606 40.6388 18.4497 39.149 19.9516C37.6591 21.4535 36.8222 23.4905 36.8222 25.6145V36.753C36.8222 38.877 37.6591 40.914 39.149 42.4159C40.6388 43.9178 42.6594 44.7616 44.7664 44.7616C46.8733 44.7616 48.894 45.6053 50.3838 47.1072C51.8736 48.6091 52.7106 50.6461 52.7106 52.7701V63.9086C52.7106 66.0326 51.8736 68.0696 50.3838 69.5715C48.894 71.0734 46.8733 71.9172 44.7664 71.9172H7.94423C5.83729 71.9172 3.81664 72.7609 2.32681 74.2628C0.836981 75.7647 0 77.8018 0 79.9258V91.0642C3.23625e-06 93.1882 0.836986 95.2252 2.32682 96.7271C3.81665 98.229 5.83729 99.0728 7.94423 99.0728H44.4033C45.4465 99.0728 46.4796 99.2799 47.4434 99.6824C48.4073 100.085 49.283 100.675 50.0207 101.418C50.7584 102.162 51.3436 103.045 51.7428 104.017C52.1421 104.988 52.3475 106.03 52.3475 107.081V118.22C52.5422 128.412 30.4873 126.228 26.0999 126.228H26.0707C23.9638 126.228 21.9432 127.072 20.4533 128.574C18.9635 130.076 18.1265 132.113 18.1265 134.237V145.375C18.1265 147.499 18.9635 149.536 20.4533 151.038C21.9432 152.54 23.9638 153.384 26.0707 153.384H46.1182C48.2251 153.384 50.2458 154.228 51.7356 155.73C53.2255 157.232 54.0624 159.269 54.0624 161.393V172.531C54.0624 174.655 53.2255 176.692 51.7356 178.194C50.2458 179.696 48.2251 180.54 46.1182 180.54H23.5967C21.4898 180.54 19.4692 181.383 17.9793 182.885C16.4895 184.387 15.6525 186.424 15.6525 188.548V199.687C15.6525 201.811 16.4895 203.848 17.9793 205.35C19.4692 206.852 21.4898 207.695 23.5967 207.695H277.165C279.272 207.695 281.293 206.852 282.783 205.35C284.272 203.848 285.109 201.811 285.109 199.687V188.548C285.109 186.424 284.272 184.387 282.783 182.885C281.293 181.383 279.272 180.54 277.165 180.54H264.176C262.069 180.54 260.048 179.696 258.559 178.194C257.069 176.692 256.232 174.655 256.232 172.531V161.393C256.232 159.269 257.069 157.232 258.559 155.73C260.048 154.228 262.069 153.384 264.176 153.384H286.518C288.625 153.384 290.646 152.54 292.136 151.038C293.626 149.536 294.463 147.499 294.463 145.375V134.237C294.463 132.113 293.626 130.076 292.136 128.574C290.646 127.072 288.625 126.228 286.518 126.228H275.49C273.383 126.228 271.363 125.385 269.873 123.883C268.383 122.381 267.546 120.344 267.546 118.22V107.081C267.546 106.03 267.752 104.988 268.151 104.017C268.55 103.045 269.135 102.162 269.873 101.418C270.611 100.675 271.486 100.085 272.45 99.6824C273.414 99.2799 274.447 99.0728 275.49 99.0728H300.055C302.162 99.0728 304.183 98.229 305.673 96.7271C307.162 95.2252 307.999 93.1882 307.999 91.0642Z" fill="#CCE8FF"/>
<path d="M165.291 73.6892C181.114 73.6892 193.941 60.7581 193.941 44.8068C193.941 28.8554 181.114 15.9243 165.291 15.9243C149.468 15.9243 136.641 28.8554 136.641 44.8068C136.641 60.7581 149.468 73.6892 165.291 73.6892Z" fill="#39A7FF" fill-opacity="0.99"/>
<path d="M155.145 38.7929C155.145 38.7572 155.145 38.7214 155.145 38.6857C155.145 36.6695 155.736 34.6984 156.844 33.02C157.952 31.3416 159.527 30.0309 161.372 29.2526C163.217 28.4743 165.249 28.2632 167.213 28.6457C169.176 29.0283 170.984 29.9875 172.408 31.4028C173.833 32.818 174.81 34.6262 175.218 36.5999C175.626 38.5737 175.446 40.6249 174.701 42.4959C173.956 44.3668 172.679 45.974 171.03 47.1153C169.382 48.2566 167.435 48.8811 165.435 48.9103V58.1957" stroke="#003966" stroke-width="4" stroke-linecap="round" stroke-linejoin="round"/>
<path d="M213.484 25.3647H233.193" stroke="#0074D1" stroke-width="3" stroke-miterlimit="10" stroke-linecap="round"/>
<path d="M213.484 31.0913H233.193" stroke="#0074D1" stroke-width="3" stroke-miterlimit="10" stroke-linecap="round"/>
<path d="M213.484 36.8179H233.193" stroke="#0074D1" stroke-width="3" stroke-miterlimit="10" stroke-linecap="round"/>
<path d="M30.1328 134.121H49.8414" stroke="#0074D1" stroke-width="3" stroke-miterlimit="10" stroke-linecap="round"/>
<path d="M30.1328 139.847H49.8414" stroke="#0074D1" stroke-width="3" stroke-miterlimit="10" stroke-linecap="round"/>
<path d="M30.1328 145.574H49.8414" stroke="#0074D1" stroke-width="3" stroke-miterlimit="10" stroke-linecap="round"/>
<path d="M251.293 174.957H271.001" stroke="#0074D1" stroke-width="3" stroke-miterlimit="10" stroke-linecap="round"/>
<path d="M251.293 180.684H271.001" stroke="#0074D1" stroke-width="3" stroke-miterlimit="10" stroke-linecap="round"/>
<path d="M251.293 186.409H271.001" stroke="#0074D1" stroke-width="3" stroke-miterlimit="10" stroke-linecap="round"/>
<path d="M275.049 146.755C279.701 146.755 283.473 142.953 283.473 138.263C283.473 133.573 279.701 129.771 275.049 129.771C270.397 129.771 266.625 133.573 266.625 138.263C266.625 142.953 270.397 146.755 275.049 146.755Z" fill="#CCE8FF"/>
<path d="M252.821 148.795C255.233 148.795 257.189 146.824 257.189 144.392C257.189 141.96 255.233 139.989 252.821 139.989C250.409 139.989 248.453 141.96 248.453 144.392C248.453 146.824 250.409 148.795 252.821 148.795Z" fill="#CCE8FF"/>
<path d="M263.912 123.774C267.359 123.774 270.152 120.957 270.152 117.483C270.152 114.009 267.359 111.192 263.912 111.192C260.466 111.192 257.672 114.009 257.672 117.483C257.672 120.957 260.466 123.774 263.912 123.774Z" fill="#CCE8FF"/>
<path d="M83.3589 203.216C88.8944 203.216 93.3819 198.692 93.3819 193.112C93.3819 187.532 88.8944 183.008 83.3589 183.008C77.8234 183.008 73.3359 187.532 73.3359 193.112C73.3359 198.692 77.8234 203.216 83.3589 203.216Z" fill="#CCE8FF"/>
<path d="M64.2129 191.179C67.0963 191.179 69.4337 188.823 69.4337 185.916C69.4337 183.009 67.0963 180.653 64.2129 180.653C61.3296 180.653 58.9922 183.009 58.9922 185.916C58.9922 188.823 61.3296 191.179 64.2129 191.179Z" fill="#CCE8FF"/>
<path d="M69.0037 171.061C70.6669 171.061 72.0152 169.701 72.0152 168.025C72.0152 166.348 70.6669 164.989 69.0037 164.989C67.3405 164.989 65.9922 166.348 65.9922 168.025C65.9922 169.701 67.3405 171.061 69.0037 171.061Z" fill="#CCE8FF"/>
<path d="M85.6765 177.45C89.6637 177.45 92.896 174.192 92.896 170.172C92.896 166.153 89.6637 162.895 85.6765 162.895C81.6893 162.895 78.457 166.153 78.457 170.172C78.457 174.192 81.6893 177.45 85.6765 177.45Z" fill="#CCE8FF"/>
<path d="M90.7027 51.534C96.2382 51.534 100.726 47.0102 100.726 41.4298C100.726 35.8495 96.2382 31.3257 90.7027 31.3257C85.1671 31.3257 80.6797 35.8495 80.6797 41.4298C80.6797 47.0102 85.1671 51.534 90.7027 51.534Z" fill="#CCE8FF"/>
<path d="M91.1075 26.091C93.9908 26.091 96.3282 23.7347 96.3282 20.828C96.3282 17.9213 93.9908 15.5649 91.1075 15.5649C88.2241 15.5649 85.8867 17.9213 85.8867 20.828C85.8867 23.7347 88.2241 26.091 91.1075 26.091Z" fill="#CCE8FF"/>
<path d="M125.882 28.4584C128.377 28.4584 130.4 26.419 130.4 23.9033C130.4 21.3875 128.377 19.3481 125.882 19.3481C123.386 19.3481 121.363 21.3875 121.363 23.9033C121.363 26.419 123.386 28.4584 125.882 28.4584Z" fill="#CCE8FF"/>
<path d="M109.441 22.5132C111.104 22.5132 112.453 21.154 112.453 19.4773C112.453 17.8006 111.104 16.4414 109.441 16.4414C107.778 16.4414 106.43 17.8006 106.43 19.4773C106.43 21.154 107.778 22.5132 109.441 22.5132Z" fill="#CCE8FF"/>
<path d="M112.938 43.3274C116.925 43.3274 120.158 40.069 120.158 36.0494C120.158 32.0299 116.925 28.7715 112.938 28.7715C108.951 28.7715 105.719 32.0299 105.719 36.0494C105.719 40.069 108.951 43.3274 112.938 43.3274Z" fill="#CCE8FF"/>
<path d="M250.819 96.8975H81.0626L75.5273 82.751H250.819C251.037 82.751 251.253 82.7943 251.454 82.8784C251.656 82.9625 251.839 83.0858 251.993 83.2413C252.147 83.3967 252.27 83.5813 252.353 83.7844C252.437 83.9875 252.479 84.2052 252.479 84.425V95.2234C252.479 95.4433 252.436 95.6609 252.353 95.864C252.27 96.0672 252.147 96.2517 251.993 96.4072C251.839 96.5626 251.656 96.6859 251.454 96.77C251.253 96.8542 251.037 96.8975 250.819 96.8975Z" fill="#003966"/>
<path d="M226.088 171.226H110.656C110.093 171.226 109.543 171.053 109.08 170.73C108.617 170.406 108.263 169.948 108.065 169.417L81.0625 96.8989H244.907L228.788 169.049C228.649 169.667 228.307 170.219 227.816 170.615C227.326 171.011 226.716 171.226 226.088 171.226Z" fill="#39A7FF" fill-opacity="0.99"/>
<path d="M236.604 134.064C224.795 134.827 212.986 135.227 201.177 135.498C195.273 135.668 189.369 135.706 183.464 135.806L165.751 135.908C153.942 135.919 142.134 135.784 130.325 135.504C118.516 135.233 106.707 134.832 94.8984 134.064C106.707 133.296 118.516 132.894 130.325 132.624C142.134 132.357 153.942 132.222 165.751 132.22L183.464 132.322C189.369 132.422 195.273 132.459 201.177 132.629C212.986 132.901 224.795 133.3 236.604 134.064Z" fill="#0074D1"/>
<path d="M213.503 96.8989C212.83 103.385 211.802 109.791 210.667 116.172C209.518 122.55 208.235 128.898 206.818 135.215C205.41 141.534 203.871 147.824 202.202 154.084C201.36 157.212 200.488 160.334 199.558 163.442C199.076 164.992 198.617 166.548 198.117 168.094L197.732 169.269C197.58 169.7 197.333 170.091 197.01 170.412C196.708 170.714 196.341 170.945 195.939 171.085C195.536 171.226 195.107 171.274 194.684 171.226C195.066 171.181 195.434 171.052 195.763 170.849C196.091 170.647 196.373 170.375 196.587 170.052C196.787 169.755 196.919 169.417 196.973 169.062L197.127 167.869C197.333 166.256 197.58 164.653 197.804 163.044C198.285 159.834 198.825 156.637 199.394 153.447C200.544 147.069 201.829 140.721 203.248 134.405C204.662 128.087 206.202 121.797 207.869 115.537C209.557 109.281 211.353 103.05 213.503 96.8989ZM147.539 171.226C147.098 171.274 146.652 171.218 146.237 171.063C145.821 170.907 145.448 170.656 145.145 170.329C144.848 169.986 144.609 169.594 144.44 169.172L143.893 168.03C143.164 166.506 142.477 164.968 141.767 163.437C140.377 160.366 139.044 157.272 137.738 154.169C135.138 147.957 132.667 141.697 130.323 135.388C127.972 129.082 125.745 122.729 123.643 116.329C121.559 109.922 119.58 103.476 117.945 96.8989C121.007 102.936 123.725 109.103 126.338 115.31C128.937 121.521 131.408 127.782 133.749 134.092C136.095 140.399 138.32 146.753 140.424 153.152C141.467 156.355 142.482 159.569 143.44 162.804C143.905 164.427 144.392 166.042 144.837 167.672L145.171 168.895C145.247 169.279 145.385 169.648 145.578 169.987C145.791 170.329 146.079 170.618 146.418 170.832C146.758 171.047 147.141 171.181 147.539 171.226Z" fill="#0074D1"/>
<path d="M139.318 228.248C145.634 228.248 150.754 223.087 150.754 216.72C150.754 210.353 145.634 205.192 139.318 205.192C133.003 205.192 127.883 210.353 127.883 216.72C127.883 223.087 133.003 228.248 139.318 228.248Z" fill="#003966"/>
<path d="M139.317 222.041C142.232 222.041 144.595 219.659 144.595 216.72C144.595 213.782 142.232 211.399 139.317 211.399C136.402 211.399 134.039 213.782 134.039 216.72C134.039 219.659 136.402 222.041 139.317 222.041Z" fill="#CCE8FF"/>
<path d="M205.283 228.248C211.599 228.248 216.718 223.087 216.718 216.72C216.718 210.353 211.599 205.192 205.283 205.192C198.967 205.192 193.848 210.353 193.848 216.72C193.848 223.087 198.967 228.248 205.283 228.248Z" fill="#003966"/>
<path d="M205.282 222.041C208.197 222.041 210.56 219.659 210.56 216.72C210.56 213.782 208.197 211.399 205.282 211.399C202.367 211.399 200.004 213.782 200.004 216.72C200.004 219.659 202.367 222.041 205.282 222.041Z" fill="#CCE8FF"/>
<path d="M166.766 96.8989C167.889 103.047 168.647 109.218 169.296 115.395C169.93 121.573 170.428 127.759 170.789 133.953C171.158 140.147 171.394 146.348 171.498 152.558C171.582 158.769 171.554 164.986 171.159 171.226C170.032 165.078 169.272 158.908 168.624 152.731C167.991 146.553 167.495 140.367 167.136 134.172C166.772 127.978 166.538 121.776 166.433 115.567C166.35 109.356 166.376 103.138 166.766 96.8989Z" fill="#0074D1"/>
<path d="M224.629 199.34H121.182C120.812 199.34 120.45 199.227 120.145 199.016C119.84 198.804 119.606 198.504 119.473 198.156L59.5608 40.7152H27.8264C27.341 40.7152 26.8754 40.5208 26.5322 40.1748C26.1889 39.8288 25.9961 39.3594 25.9961 38.8701C25.9961 38.3807 26.1889 37.9114 26.5322 37.5653C26.8754 37.2193 27.341 37.0249 27.8264 37.0249H60.819C61.1892 37.0249 61.5508 37.1381 61.8559 37.3496C62.161 37.5611 62.3953 37.8609 62.5279 38.2094L122.44 195.65H224.629C225.115 195.65 225.58 195.844 225.923 196.19C226.267 196.536 226.46 197.006 226.46 197.495C226.46 197.985 226.267 198.454 225.923 198.8C225.58 199.146 225.115 199.34 224.629 199.34Z" fill="#003966"/>
<path d="M43.745 33.5503H22.0249C21.351 33.5503 20.8047 34.101 20.8047 34.7804V43.6126C20.8047 44.292 21.351 44.8427 22.0249 44.8427H43.745C44.4189 44.8427 44.9652 44.292 44.9652 43.6126V34.7804C44.9652 34.101 44.4189 33.5503 43.745 33.5503Z" fill="#003966"/>
<path d="M165.288 65.565C166.198 65.565 166.935 64.8215 166.935 63.9043C166.935 62.9872 166.198 62.2437 165.288 62.2437C164.378 62.2437 163.641 62.9872 163.641 63.9043C163.641 64.8215 164.378 65.565 165.288 65.565Z" fill="#003966"/>
</g>
</svg>
