<svg width="39" height="41" viewBox="0 0 39 41" fill="none" xmlns="http://www.w3.org/2000/svg">
<path d="M6.87426 4.75088C6.4325 4.71555 5.85583 4.71429 4.95416 4.71429H2.77743C1.79578 4.71429 1 3.88282 1 2.85715C1 1.83148 1.79578 1 2.77743 1H5.01678C5.83786 0.999972 6.55187 0.999947 7.14557 1.04743C7.77651 1.09789 8.40275 1.20914 9.02047 1.50411C9.9508 1.94835 10.7392 2.6628 11.2917 3.56223C11.6585 4.15945 11.8525 4.7915 11.9895 5.43697C12.1184 6.04432 12.2194 6.78276 12.3355 7.63198L12.4592 8.53683L32.3013 9.97376C33.0182 10.0256 33.6613 10.0722 34.1917 10.1571C34.758 10.2478 35.357 10.4037 35.9253 10.7701C36.7453 11.2987 37.3786 12.0916 37.7298 13.0289C37.9732 13.6788 38.0129 14.3231 37.9969 14.9215C37.982 15.4816 37.9108 16.1508 37.8315 16.8968L37.6544 18.5608C37.4622 20.3687 37.3067 21.8316 37.0911 23.0145C36.8684 24.2355 36.5593 25.2992 35.9902 26.2719C35.0814 27.8253 33.7555 29.0654 32.1773 29.8377C31.1892 30.3212 30.1431 30.5247 28.957 30.621C27.8086 30.7143 26.4006 30.7143 24.6608 30.7143H18.3124C17.4913 30.7143 16.7773 30.7143 16.1836 30.6669C15.5527 30.6164 14.9266 30.5052 14.3089 30.2104C13.3786 29.7661 12.59 29.0515 12.0376 28.1524C11.6708 27.5552 11.4767 26.9229 11.3397 26.2774C11.2107 25.6701 11.1098 24.9317 10.9937 24.0824L9.14855 10.587C9.14472 10.5626 9.14136 10.538 9.13846 10.5133L8.82521 8.2222C8.6977 7.28956 8.61495 6.69327 8.519 6.24134C8.42789 5.81216 8.35105 5.65163 8.29993 5.56839C8.11576 5.26857 7.85293 5.03039 7.54284 4.88232C7.45677 4.84122 7.29383 4.78444 6.87426 4.75088Z" stroke="black" stroke-width="2" stroke-linecap="round" stroke-linejoin="round"/>
<path d="M11.6646 36.2857C11.6646 34.2344 13.2562 32.5714 15.2194 32.5714C17.1827 32.5714 18.7743 34.2344 18.7743 36.2857C18.7743 38.3371 17.1827 40 15.2194 40C13.2562 40 11.6646 38.3371 11.6646 36.2857Z" stroke="black" stroke-width="2" stroke-linecap="round" stroke-linejoin="round"/>
<path d="M27.6615 36.2857C27.6615 34.2344 29.253 32.5714 31.2163 32.5714C33.1796 32.5714 34.7712 34.2344 34.7712 36.2857C34.7712 38.3371 33.1796 40 31.2163 40C29.253 40 27.6615 38.3371 27.6615 36.2857Z" stroke="black" stroke-width="2" stroke-linecap="round" stroke-linejoin="round"/>
</svg>
