<svg width="22" height="17" viewBox="0 0 22 17" fill="none" xmlns="http://www.w3.org/2000/svg">
<path d="M2 0.5C1.46957 0.5 0.960859 0.710714 0.585786 1.08579C0.210714 1.46086 0 1.96957 0 2.5V13.5H2C2 14.2956 2.31607 15.0587 2.87868 15.6213C3.44129 16.1839 4.20435 16.5 5 16.5C5.79565 16.5 6.55871 16.1839 7.12132 15.6213C7.68393 15.0587 8 14.2956 8 13.5H14C14 14.2956 14.3161 15.0587 14.8787 15.6213C15.4413 16.1839 16.2044 16.5 17 16.5C17.7956 16.5 18.5587 16.1839 19.1213 15.6213C19.6839 15.0587 20 14.2956 20 13.5H22V8.5L19 4.5H16V0.5M9 2.5L13 6.5L9 10.5V7.5H3V5.5H9M16 6H18.5L20.47 8.5H16M5 12C5.39782 12 5.77936 12.158 6.06066 12.4393C6.34196 12.7206 6.5 13.1022 6.5 13.5C6.5 13.8978 6.34196 14.2794 6.06066 14.5607C5.77936 14.842 5.39782 15 5 15C4.60218 15 4.22064 14.842 3.93934 14.5607C3.65804 14.2794 3.5 13.8978 3.5 13.5C3.5 13.1022 3.65804 12.7206 3.93934 12.4393C4.22064 12.158 4.60218 12 5 12ZM17 12C17.3978 12 17.7794 12.158 18.0607 12.4393C18.342 12.7206 18.5 13.1022 18.5 13.5C18.5 13.8978 18.342 14.2794 18.0607 14.5607C17.7794 14.842 17.3978 15 17 15C16.6022 15 16.2206 14.842 15.9393 14.5607C15.658 14.2794 15.5 13.8978 15.5 13.5C15.5 13.1022 15.658 12.7206 15.9393 12.4393C16.2206 12.158 16.6022 12 17 12Z" fill="#39A7FF"/>
</svg>
